<?xml version="1.0" encoding="UTF-8"?>
<svg id="Capa_1" data-name="Capa 1" xmlns="http://www.w3.org/2000/svg" version="1.1" viewBox="0 0 228 40">
  <defs>
    <style>
      .cls-1 {
        fill: #ff001e;
      }

      .cls-1, .cls-2, .cls-3, .cls-4 {
        stroke-width: 0px;
      }

      .cls-2 {
        fill: #dadada;
      }

      .cls-3 {
        fill: #fff;
      }

      .cls-4 {
        fill: #000f3c;
      }
    </style>
  </defs>
  <g>
    <g>
      <path class="cls-4" d="M20.7,39.4c-.2,0-3.4-.5-6.1-1.9l.3.3-1.5-.3c-.2,0-3-.6-5-2.4l.6,1.2-1.9-1.5c-.1,0-2.5-2.1-2.8-5.1,0-1.1.1-2.2.6-3.3l-1,.8v-1.3c.2-.1.4-2.2,2-4-1.6-.6-4.7-2.1-5.1-5.9v-.8c0,0,.7.1.7.1,0,0,.1,0,.3,0,.8,0,2.7-.3,4.4-3.1.3-.5.6-1,.9-1.6C9.1,6.9,11.7,2.1,17.6,1l1.2-.2-.6,1.1c0,0-.9,1.6-.3,3.2.5-.3,1.4-.6,2.8-.6s2.3.3,2.8.6c.6-1.7-.2-3.2-.3-3.2l-.6-1.1,1.2.2c5.9,1.1,8.6,5.9,10.7,9.7.3.5.6,1.1.9,1.6,1.6,2.8,3.6,3.1,4.4,3.1s.3,0,.3,0h.7c0-.1,0,.6,0,.6-.4,3.8-3.5,5.3-5.1,5.9,1.6,1.8,1.8,3.9,1.8,4v1.3c.1,0-.9-.8-.9-.8.5,1.1.7,2.2.6,3.3-.3,3-2.7,5.1-2.8,5.1l-1.9,1.5.6-1.2c-1.9,1.9-4.8,2.4-5,2.4l-1.5.3.3-.3c-2.7,1.4-5.9,1.9-6.1,1.9h0s0,0,0,0Z"/>
      <path class="cls-3" d="M23.8,1.6c6.5,1.2,8.9,7.1,11.2,11,1.8,3.1,4,3.4,4.8,3.4s.4,0,.4,0c-.5,4.8-5.6,5.7-5.6,5.7,2.1,1.7,2.3,4.3,2.3,4.3-1-.8-2-1.1-2-1.1,4.5,5.2-.8,9.6-.8,9.6.8-1.7.2-2.9.2-2.9-.3,4.5-6.2,5.5-6.2,5.5.4-.5.6-1.5.6-1.5-2.4,2.7-8,3.4-8,3.4,0,0-5.5-.7-8-3.4,0,0,.2,1,.6,1.5,0,0-5.9-1-6.2-5.5,0,0-.6,1.2.2,2.9,0,0-5.3-4.4-.8-9.6,0,0-1,.3-2,1.1,0,0,.3-2.6,2.3-4.3,0,0-5.1-.9-5.6-5.7,0,0,.1,0,.4,0,.9,0,3.1-.3,4.8-3.4,2.3-3.9,4.7-9.8,11.2-11,0,0-1.3,2.1,0,4.4,0,0,.8-.8,3.1-.8s3.1.8,3.1.8c1.2-2.2,0-4.4,0-4.4M21.5,0l1.3,2.1c0,0,.6,1,.4,2.2-.6-.2-1.4-.4-2.4-.4s-1.8.2-2.4.4c-.2-1.2.4-2.2.4-2.2l1.3-2.1-2.4.4c-6.2,1.1-8.9,6-11.1,10-.3.5-.6,1.1-.9,1.5-1.5,2.6-3.2,2.8-3.9,2.8s-.2,0-.2,0l-1.5-.3.2,1.6c.4,3.3,2.7,5.2,4.7,6.1-1.2,1.7-1.4,3.6-1.5,3.7l-.3,2.6.6-.5c-.1.6-.1,1.2,0,1.8.3,3.3,2.9,5.4,3,5.5l3.7,3.1-.7-1.5c1.7.9,3.4,1.3,3.5,1.3l2,.4c2.5,1.1,5.2,1.5,5.4,1.5h.1s.1,0,.1,0c.2,0,2.8-.4,5.4-1.5l2-.4c.1,0,1.8-.3,3.5-1.3l-.7,1.5,3.7-3.1c.1,0,2.7-2.3,3-5.5,0-.6,0-1.2,0-1.8l.6.5-.3-2.6c0,0-.2-1.9-1.5-3.7,2-.9,4.3-2.8,4.7-6.1l.2-1.6-1.5.3s0,0-.2,0c-.7,0-2.4-.3-3.9-2.8-.3-.5-.6-1-.9-1.5-2.2-3.9-4.9-8.8-11.1-10l-2.4-.4h0Z"/>
    </g>
    <path class="cls-3" d="M30.5,21c-4.5-4-9.8-3.7-9.8-3.7,0,0-5.3-.2-9.8,3.7-4.5,4-2.5,8-2.5,8,.3-1.7,1-2.2,1-2.2,0,3.6,2.7,5.4,2.7,5.4,0-2.8.3-3,.3-3,1.3,3.6,3.6,4.4,3.6,4.4,0-2.6,1-4.4,1-4.4.4,5.1,3.6,5.6,3.6,5.6h0s3.2-.5,3.6-5.6c0,0,1.1,1.7,1,4.4,0,0,2.3-.7,3.6-4.4,0,0,.3.2.3,3,0,0,2.8-1.8,2.7-5.4,0,0,.6.5,1,2.2,0,0,2-4-2.5-8Z"/>
    <ellipse class="cls-4" cx="20.8" cy="28.6" rx="3.6" ry="1.9"/>
    <path class="cls-1" d="M29,29.2s.3.2.3,3c0,0,2.8-1.8,2.7-5.4,0,0,.6.5,1,2.2,0,0,2-4-2.5-8-.3-.3-.6-.5-1-.8,0,0-.6,1.7-3.6,2.5-3,.8-1.9,3-1.9,3,0,0-.4,1.3-1.2,1.5-.9.1-2.1.8-2.1,1.1,0-.3-1.2-1-2.1-1.1-.9-.1-1.2-1.5-1.2-1.5,0,0,1.1-2.2-1.9-3-3-.8-3.6-2.5-3.6-2.5-.3.2-.7.5-1,.8-4.5,4-2.5,8-2.5,8,.3-1.7,1-2.2,1-2.2,0,3.6,2.7,5.4,2.7,5.4,0-2.8.3-3,.3-3,1.3,3.6,3.6,4.4,3.6,4.4,0-2.6,1-4.4,1-4.4.4,5.1,3.6,5.6,3.6,5.6h0s3.2-.5,3.6-5.6c0,0,1.1,1.7,1,4.4,0,0,2.3-.7,3.6-4.4Z"/>
    <path class="cls-4" d="M26.2,22.5c-2.8-1-5.4-.2-5.4-.2,0,0-2.6-.8-5.4.2-2.8,1-4.2.7-4.2.7,0,0,.6,2.7,3.3,3.4,2.7.6,6.3-1.1,6.3-1.1,0,0,3.6,1.7,6.3,1.1,2.7-.6,3.3-3.4,3.3-3.4,0,0-1.4.3-4.2-.7Z"/>
    <path class="cls-4" d="M21.5,19.3s.2.4.5,1.4h3.8s-.6-.7-1.1-1.1c0,0,1.5-.1,2.5.4,0,0-1.1-1.8-2.5-1.8s-1.9,1.1-3.2,1.1Z"/>
    <path class="cls-2" d="M29.5,20.2c-.5-.4-1-.7-1.6-1,0,.7,0,1.9-1.1,3.2,2.2-.9,2.7-2.2,2.7-2.2Z"/>
    <path class="cls-4" d="M20,19.3s-.2.4-.5,1.4h-3.8s.6-.7,1.1-1.1c0,0-1.5-.1-2.5.4,0,0,1.1-1.8,2.5-1.8s1.9,1.1,3.2,1.1Z"/>
    <path class="cls-1" d="M28.7,24s-1.4-.2-2.2-.9c-.7-.6-1.3-.8-1.4-.8-1.1-.3-2.1-.3-2.9-.3-.9,0-1.1.7-1.1.7l-.3-.2h0s0,0,0,0h0s-.3.2-.3.2c0,0-.2-.7-1.1-.7-.8,0-1.8,0-2.9.3-.2,0-.8.2-1.4.8-.8.7-2.2.9-2.2.9,0,0,1.7,1.1,3.7.2,0,0-.4.5-1.1.9,0,0,1.6,0,3.6-1.3,0,0-.1.6-.4.9,0,0,1.3-.4,2.2-1.1,1,.7,2.2,1.1,2.2,1.1-.3-.3-.4-.9-.4-.9,2,1.4,3.6,1.3,3.6,1.3-.7-.4-1.1-.9-1.1-.9,1.9.9,3.7-.2,3.7-.2Z"/>
    <path class="cls-1" d="M33.3,13.9c-2.3-3.6-3-6.5-6.9-8.6,0,0,0,4.6-5.6,4.6s-5.6-4.6-5.6-4.6c-3.9,2.1-4.6,5.1-6.9,8.6-2.3,3.6-4.4,3.7-4.4,3.7,2.3,0,4.5-1.4,6.8-5.9,2-3.9,3.8-4.8,3.8-4.8,1.1,4.2,6.3,4.1,6.3,4.1,0,0,5.2.2,6.3-4.1,0,0,1.8.9,3.8,4.8,2.3,4.5,4.6,5.9,6.8,5.9,0,0-2.1-.1-4.4-3.7Z"/>
    <path class="cls-2" d="M12,20.2c.5-.4,1-.7,1.6-1,0,.7,0,1.9,1.1,3.2-2.2-.9-2.7-2.2-2.7-2.2Z"/>
    <path class="cls-4" d="M20.8,22.1c.7,0,1.4-.2,1.9-.6-.1.9-.9,1.6-1.9,1.6s-1.7-.7-1.9-1.6c.5.4,1.1.6,1.9.6Z"/>
    <path class="cls-1" d="M13.4,15.9c.7-.1,1.6-.2,2-.2,0,0-1.7.7-2.6,2.2,2.3-1.3,5-2,7.9-2s5,.6,7.1,1.6c-.9-1-3.3-3.3-7.5-3.6-3.7-.3-6,.9-7.1,1.6-.2.1,0,.4.1.4Z"/>
  </g>
  <g>
    <path class="cls-3" d="M52.7,27.1c-1.3,0-2.5-.3-3.5-.9-1-.6-1.7-1.4-2.2-2.4-.5-1-.8-2.2-.8-3.5s.3-2.5.8-3.5c.5-1,1.3-1.8,2.2-2.4,1-.6,2.1-.9,3.4-.9s2.1.2,3,.6,1.5,1,2,1.7c.5.8.8,1.6.8,2.6h-3.4c0-.7-.4-1.2-.8-1.6-.4-.4-1-.6-1.6-.6s-1.1.2-1.5.5-.7.7-1,1.3c-.2.6-.3,1.3-.3,2.1s.1,1.5.3,2.1c.2.6.6,1,1,1.3.4.3.9.5,1.5.5s.8,0,1.1-.3c.3-.2.6-.4.8-.7.2-.3.4-.7.4-1.2h3.4c0,1-.3,1.9-.8,2.6-.5.8-1.2,1.4-2,1.8-.9.4-1.9.6-3,.6Z"/>
    <path class="cls-3" d="M64.6,27.1c-.8,0-1.6-.1-2.2-.4-.7-.3-1.2-.7-1.5-1.3-.4-.6-.6-1.3-.6-2.2s.1-1.3.4-1.8c.3-.5.6-.9,1.1-1.2.5-.3,1-.5,1.6-.7.6-.2,1.2-.3,1.9-.3.8,0,1.4-.2,1.8-.2s.8-.2,1-.3c.2-.1.3-.4.3-.6h0c0-.6-.2-1-.5-1.3-.3-.3-.8-.4-1.4-.4s-1.2.1-1.6.4c-.4.3-.6.6-.8,1.1l-3.4-.3c.2-.8.5-1.5,1-2.1.5-.6,1.1-1,1.9-1.3.8-.3,1.7-.5,2.8-.5s1.4,0,2.1.3,1.3.4,1.8.8c.5.4.9.8,1.2,1.4s.5,1.2.5,2v8.8h-3.4v-1.8h-.1c-.2.4-.5.8-.8,1.1-.4.3-.8.6-1.3.7-.5.2-1.1.3-1.7.3ZM65.6,24.6c.5,0,1-.1,1.4-.3s.7-.5,1-.9c.2-.4.3-.8.3-1.2v-1.4c-.1,0-.3.1-.5.2s-.4.1-.7.2c-.2,0-.5,0-.7.1s-.5,0-.7,0c-.4,0-.8.2-1.1.3-.3.1-.6.3-.7.5-.2.2-.3.5-.3.9,0,.5.2.9.5,1.1.4.3.8.4,1.4.4Z"/>
    <path class="cls-3" d="M74.8,31.8V13.8h3.6v2.2h.2c.2-.4.4-.7.7-1.1.3-.4.7-.7,1.2-.9s1.1-.4,1.8-.4,1.8.2,2.6.7,1.5,1.2,1.9,2.2c.5,1,.7,2.2.7,3.7s-.2,2.7-.7,3.7-1.1,1.8-1.9,2.3c-.8.5-1.7.8-2.7.8s-1.3-.1-1.8-.3c-.5-.2-.9-.5-1.2-.9-.3-.4-.6-.7-.7-1.1h-.1v7h-3.6ZM78.3,20.3c0,.8.1,1.5.3,2,.2.6.5,1,.9,1.4.4.3.9.5,1.5.5s1.1-.2,1.5-.5c.4-.3.7-.8.9-1.4.2-.6.3-1.3.3-2s-.1-1.4-.3-2c-.2-.6-.5-1-.9-1.3-.4-.3-.9-.5-1.5-.5s-1.1.2-1.5.5-.7.8-.9,1.3c-.2.6-.3,1.2-.3,2Z"/>
    <path class="cls-3" d="M91.8,12.1c-.5,0-1-.2-1.4-.5-.4-.4-.6-.8-.6-1.3s.2-.9.6-1.3.8-.5,1.4-.5,1,.2,1.4.5c.4.4.6.8.6,1.3s-.2.9-.6,1.3c-.4.4-.8.5-1.4.5ZM90,26.9v-13.1h3.6v13.1h-3.6Z"/>
    <path class="cls-3" d="M103.5,13.8v2.7h-7.9v-2.7h7.9ZM97.4,10.6h3.6v12.2c0,.3,0,.6.2.8.1.2.2.3.4.4.2,0,.4.1.6.1s.3,0,.5,0,.3,0,.4,0l.6,2.7c-.2,0-.4.1-.8.2-.3,0-.7.1-1.2.1-.9,0-1.6,0-2.3-.3-.7-.3-1.2-.7-1.5-1.2-.4-.6-.5-1.3-.5-2.1v-12.7Z"/>
    <path class="cls-3" d="M109.6,27.1c-.8,0-1.6-.1-2.2-.4-.7-.3-1.2-.7-1.5-1.3-.4-.6-.6-1.3-.6-2.2s.1-1.3.4-1.8c.3-.5.6-.9,1.1-1.2.5-.3,1-.5,1.6-.7s1.2-.3,1.9-.3c.8,0,1.4-.2,1.8-.2s.8-.2,1-.3c.2-.1.3-.4.3-.6h0c0-.6-.2-1-.5-1.3-.3-.3-.8-.4-1.4-.4s-1.2.1-1.6.4c-.4.3-.6.6-.8,1.1l-3.4-.3c.2-.8.5-1.5,1-2.1.5-.6,1.1-1,1.9-1.3.8-.3,1.7-.5,2.8-.5s1.4,0,2.1.3c.7.2,1.3.4,1.8.8.5.4.9.8,1.2,1.4.3.6.5,1.2.5,2v8.8h-3.4v-1.8h-.1c-.2.4-.5.8-.8,1.1-.4.3-.8.6-1.3.7-.5.2-1.1.3-1.7.3ZM110.6,24.6c.5,0,1-.1,1.4-.3s.7-.5,1-.9c.2-.4.3-.8.3-1.2v-1.4c-.1,0-.3.1-.5.2s-.4.1-.7.2c-.2,0-.5,0-.7.1s-.5,0-.7,0c-.4,0-.8.2-1.1.3-.3.1-.6.3-.7.5-.2.2-.3.5-.3.9,0,.5.2.9.5,1.1.4.3.8.4,1.4.4ZM110.2,12.1l1.8-3.9h3.4l-2.6,3.9h-2.6Z"/>
    <path class="cls-3" d="M123.4,19.3v7.6h-3.6v-13.1h3.5v2.3h.2c.3-.8.8-1.4,1.5-1.8.7-.4,1.5-.7,2.5-.7s1.7.2,2.4.6c.7.4,1.2,1,1.6,1.7.4.7.6,1.6.6,2.6v8.3h-3.6v-7.7c0-.8-.2-1.4-.6-1.9-.4-.5-1-.7-1.7-.7s-.9.1-1.3.3-.7.5-.9.9c-.2.4-.3.9-.3,1.4Z"/>
    <path class="cls-3" d="M140.2,31.8V13.8h3.6v2.2h.2c.2-.4.4-.7.7-1.1.3-.4.7-.7,1.2-.9s1.1-.4,1.8-.4,1.8.2,2.6.7,1.5,1.2,1.9,2.2c.5,1,.7,2.2.7,3.7s-.2,2.7-.7,3.7-1.1,1.8-1.9,2.3c-.8.5-1.7.8-2.7.8s-1.3-.1-1.8-.3c-.5-.2-.9-.5-1.2-.9-.3-.4-.6-.7-.7-1.1h-.1v7h-3.6ZM143.8,20.3c0,.8.1,1.5.3,2,.2.6.5,1,.9,1.4.4.3.9.5,1.5.5s1.1-.2,1.5-.5c.4-.3.7-.8.9-1.4.2-.6.3-1.3.3-2s-.1-1.4-.3-2c-.2-.6-.5-1-.9-1.3-.4-.3-.9-.5-1.5-.5s-1.1.2-1.5.5-.7.8-.9,1.3c-.2.6-.3,1.2-.3,2Z"/>
    <path class="cls-3" d="M157.2,12.1c-.5,0-1-.2-1.4-.5-.4-.4-.6-.8-.6-1.3s.2-.9.6-1.3.8-.5,1.4-.5,1,.2,1.4.5c.4.4.6.8.6,1.3s-.2.9-.6,1.3c-.4.4-.8.5-1.4.5ZM155.4,26.9v-13.1h3.6v13.1h-3.6Z"/>
    <path class="cls-3" d="M167.9,27.1c-1.3,0-2.5-.3-3.5-.9-1-.6-1.7-1.4-2.2-2.4-.5-1-.8-2.2-.8-3.5s.3-2.5.8-3.5c.5-1,1.3-1.8,2.2-2.4,1-.6,2.1-.9,3.4-.9s2.1.2,3,.6c.9.4,1.5,1,2,1.7.5.8.8,1.6.8,2.6h-3.4c0-.7-.4-1.2-.8-1.6s-1-.6-1.6-.6-1.1.2-1.5.5c-.4.3-.7.7-1,1.3-.2.6-.3,1.3-.3,2.1s.1,1.5.3,2.1c.2.6.6,1,1,1.3.4.3.9.5,1.5.5s.8,0,1.1-.3c.3-.2.6-.4.8-.7.2-.3.4-.7.4-1.2h3.4c0,1-.3,1.9-.8,2.6-.5.8-1.2,1.4-2,1.8-.9.4-1.9.6-3,.6Z"/>
    <path class="cls-3" d="M179.8,27.1c-.8,0-1.6-.1-2.2-.4-.7-.3-1.2-.7-1.5-1.3-.4-.6-.6-1.3-.6-2.2s.1-1.3.4-1.8c.3-.5.6-.9,1.1-1.2.5-.3,1-.5,1.6-.7s1.2-.3,1.9-.3c.8,0,1.4-.2,1.8-.2s.8-.2,1-.3c.2-.1.3-.4.3-.6h0c0-.6-.2-1-.5-1.3-.3-.3-.8-.4-1.4-.4s-1.2.1-1.6.4c-.4.3-.6.6-.8,1.1l-3.4-.3c.2-.8.5-1.5,1-2.1.5-.6,1.1-1,1.9-1.3.8-.3,1.7-.5,2.8-.5s1.4,0,2.1.3c.7.2,1.3.4,1.8.8.5.4.9.8,1.2,1.4.3.6.5,1.2.5,2v8.8h-3.4v-1.8h-.1c-.2.4-.5.8-.8,1.1-.4.3-.8.6-1.3.7-.5.2-1.1.3-1.7.3ZM180.8,24.6c.5,0,1-.1,1.4-.3s.7-.5,1-.9c.2-.4.3-.8.3-1.2v-1.4c-.1,0-.3.1-.5.2s-.4.1-.7.2c-.2,0-.5,0-.7.1s-.5,0-.7,0c-.4,0-.8.2-1.1.3-.3.1-.6.3-.7.5-.2.2-.3.5-.3.9,0,.5.2.9.5,1.1.4.3.8.4,1.4.4Z"/>
    <path class="cls-3" d="M193.6,19.3v7.6h-3.6v-13.1h3.5v2.3h.2c.3-.8.8-1.4,1.5-1.8.7-.4,1.5-.7,2.5-.7s1.7.2,2.4.6c.7.4,1.2,1,1.6,1.7.4.7.6,1.6.6,2.6v8.3h-3.6v-7.7c0-.8-.2-1.4-.6-1.9-.4-.5-1-.7-1.7-.7s-.9.1-1.3.3-.7.5-.9.9c-.2.4-.3.9-.3,1.4Z"/>
    <path class="cls-3" d="M211.9,13.8v2.7h-7.9v-2.7h7.9ZM205.8,10.6h3.6v12.2c0,.3,0,.6.2.8.1.2.2.3.4.4.2,0,.4.1.6.1s.3,0,.5,0,.3,0,.4,0l.6,2.7c-.2,0-.4.1-.8.2-.3,0-.7.1-1.2.1-.9,0-1.6,0-2.3-.3-.7-.3-1.2-.7-1.5-1.2-.4-.6-.5-1.3-.5-2.1v-12.7Z"/>
    <path class="cls-3" d="M220,27.1c-1.3,0-2.5-.3-3.5-.8-1-.5-1.7-1.3-2.2-2.3-.5-1-.8-2.2-.8-3.6s.3-2.5.8-3.5c.5-1,1.3-1.8,2.2-2.4,1-.6,2.1-.9,3.4-.9s1.7.1,2.4.4c.7.3,1.4.7,2,1.2.6.6,1,1.2,1.3,2.1.3.8.5,1.8.5,2.9v1h-11.1v-2.2h7.6c0-.5-.1-1-.3-1.4-.2-.4-.5-.7-.9-1-.4-.2-.9-.3-1.4-.3s-1,.1-1.5.4c-.4.3-.8.6-1,1-.2.4-.4.9-.4,1.4v2.1c0,.6.1,1.2.4,1.7.2.5.6.8,1,1.1s1,.4,1.6.4.8,0,1.1-.2c.3-.1.6-.3.9-.5.2-.2.4-.5.5-.8l3.4.2c-.2.8-.5,1.5-1,2.1s-1.2,1.1-2,1.4c-.8.3-1.8.5-2.9.5Z"/>
  </g>
</svg>