<?xml version="1.0" encoding="UTF-8"?>
<svg id="Capa_1" data-name="Capa 1" xmlns="http://www.w3.org/2000/svg" version="1.1" viewBox="0 0 132 32">
  <defs>
    <style>
      .cls-1 {
        fill: #00dcff;
      }

      .cls-1, .cls-2, .cls-3 {
        stroke-width: 0px;
      }

      .cls-2 {
        fill: #0078ff;
      }

      .cls-3 {
        fill: #fff;
      }
    </style>
  </defs>
  <g>
    <path class="cls-3" d="M41.7,24v-15.9h4.3v2.8h.2c.3-1,.8-1.7,1.5-2.2.7-.5,1.5-.8,2.4-.8s.5,0,.7,0c.3,0,.5,0,.7.1v3.9c-.2,0-.5-.1-.9-.2-.4,0-.7,0-1,0-.6,0-1.2.1-1.7.4-.5.3-.9.7-1.2,1.2-.3.5-.4,1.1-.4,1.7v9h-4.4Z"/>
    <path class="cls-3" d="M60.1,24.3c-1.6,0-3-.3-4.2-1-1.2-.7-2.1-1.6-2.7-2.8-.6-1.2-1-2.7-1-4.3s.3-3.1,1-4.3c.6-1.2,1.5-2.2,2.7-2.9,1.2-.7,2.5-1,4.1-1s2,.2,2.9.5c.9.3,1.7.8,2.4,1.5.7.7,1.2,1.5,1.6,2.5.4,1,.6,2.2.6,3.5v1.2h-13.4v-2.7h9.3c0-.6-.1-1.2-.4-1.7-.3-.5-.7-.9-1.1-1.2s-1.1-.4-1.7-.4-1.3.2-1.8.5c-.5.3-.9.7-1.2,1.2-.3.5-.4,1.1-.4,1.7v2.6c0,.8.1,1.5.4,2,.3.6.7,1,1.2,1.3s1.2.5,1.9.5.9,0,1.3-.2c.4-.1.8-.3,1-.6.3-.3.5-.6.7-1l4.1.3c-.2,1-.6,1.8-1.3,2.6-.6.7-1.5,1.3-2.5,1.7-1,.4-2.2.6-3.5.6Z"/>
    <path class="cls-3" d="M83.5,12.6l-4,.2c0-.3-.2-.7-.4-.9-.2-.3-.5-.5-.9-.7-.4-.2-.8-.3-1.3-.3s-1.3.1-1.7.4c-.5.3-.7.7-.7,1.1s.2.7.5,1,.8.5,1.6.6l2.9.6c1.5.3,2.7.8,3.5,1.5.8.7,1.1,1.6,1.1,2.8s-.3,2-.9,2.7c-.6.8-1.4,1.4-2.5,1.8s-2.3.7-3.7.7c-2.1,0-3.8-.4-5-1.3-1.2-.9-2-2.1-2.2-3.6l4.3-.2c.1.6.4,1.1,1,1.5.5.3,1.1.5,1.9.5s1.4-.2,1.9-.5.7-.7.7-1.2c0-.4-.2-.7-.5-1s-.8-.5-1.5-.6l-2.8-.5c-1.6-.3-2.7-.8-3.5-1.6-.8-.8-1.1-1.7-1.1-2.9s.3-1.9.8-2.6c.6-.7,1.3-1.3,2.3-1.7,1-.4,2.2-.6,3.6-.6,2,0,3.6.4,4.7,1.3,1.2.8,1.8,2,2,3.5Z"/>
    <path class="cls-3" d="M95.1,8.1v3.3h-9.6v-3.3h9.6ZM87.7,4.3h4.4v14.8c0,.4,0,.7.2.9.1.2.3.4.5.5.2,0,.5.1.8.1s.4,0,.6,0c.2,0,.4,0,.5,0l.7,3.3c-.2,0-.5.1-.9.2-.4,0-.9.2-1.5.2-1.1,0-2,0-2.8-.4-.8-.3-1.4-.8-1.9-1.5s-.7-1.5-.7-2.6V4.3Z"/>
    <path class="cls-3" d="M100.2,6c-.7,0-1.2-.2-1.7-.7-.5-.4-.7-1-.7-1.6s.2-1.1.7-1.6c.5-.4,1-.7,1.7-.7s1.2.2,1.7.7c.5.4.7,1,.7,1.6s-.2,1.1-.7,1.6c-.5.4-1,.7-1.7.7ZM97.9,24v-15.9h4.4v15.9h-4.4Z"/>
    <path class="cls-3" d="M114.4,8.1v3.3h-9.8v-3.3h9.8ZM106.8,24V6.9c0-1.2.2-2.1.7-2.9.5-.8,1.1-1.3,1.9-1.7.8-.4,1.7-.6,2.7-.6s1.3,0,1.9.2,1,.2,1.3.3l-.8,3.3c-.2,0-.4-.1-.6-.2-.3,0-.5,0-.8,0-.6,0-1.1.1-1.4.4s-.4.7-.4,1.3v17h-4.4Z"/>
    <path class="cls-3" d="M119.8,29.9c-.6,0-1.1,0-1.6-.1-.5,0-.9-.2-1.2-.3l1-3.3c.5.2,1,.2,1.4.3.4,0,.8,0,1.1-.3.3-.2.6-.6.8-1.1l.3-.7-5.7-16.3h4.6l3.3,11.7h.2l3.3-11.7h4.7l-6.2,17.6c-.3.9-.7,1.6-1.2,2.2s-1.1,1.1-1.9,1.5c-.8.3-1.7.5-2.8.5Z"/>
  </g>
  <g>
    <path class="cls-3" d="M24,24c4.4,0,8-3.6,8-8v-8c0-4.4-3.6-8-8-8H0l8,8h16v16"/>
    <polygon class="cls-2" points="32 32 18.7 18.7 2.3 32 32 32"/>
    <polygon class="cls-1" points="13.3 13.3 0 0 0 29.7 13.3 13.3"/>
  </g>
</svg>